# xmcd
#
# Track frame offsets:
#	150
#	25452
#	52662
#	71820
#	89662
#	113597
#	127907
#	150850
#	173372
#	194515
#
# Disc length: 2914 seconds
#
# Revision: 2
# Processed by: cddbd v1.5.1PL0 Copyright (c) Steve Scherf et al.
# Submitted via: EZCDDA 4.3.2
#
DISCID=750b600a
DTITLE=¸ð¸§
DYEAR=1900
DGENRE=
TTITLE0=Ghost Dance
TTITLE1=Kokopeli's Dream
TTITLE2=Geronimo's Laughter
TTITLE3=Medicine Man
TTITLE4=Little Pigeon And Crazy Horse
TTITLE5=Pahrump - Big Water
TTITLE6=Dream Catcher
TTITLE7=Legend In The Redwoods
TTITLE8=The Hunt
TTITLE9=White Buffalo
EXTD=
EXTT0=
EXTT1=
EXTT2=
EXTT3=
EXTT4=
EXTT5=
EXTT6=
EXTT7=
EXTT8=
EXTT9=
PLAYORDER=
